<svg id="Capa_1" enable-background="new 0 0 512.034 512.034" height="512" viewBox="0 0 512.034 512.034" width="512" xmlns="http://www.w3.org/2000/svg"><g id="XMLID_876_"><g id="XMLID_2728_"><g id="XMLID_632_"><path id="XMLID_633_" d="m346.5 52.017h-98.667c-5.523 0-10 4.478-10 10s4.477 10 10 10h98.667c5.523 0 10-4.478 10-10s-4.477-10-10-10z"/><path id="XMLID_1239_" d="m178.52 52.017c-2.63 0-5.21 1.069-7.07 2.93-1.86 1.86-2.93 4.44-2.93 7.07s1.07 5.21 2.93 7.069c1.86 1.86 4.44 2.931 7.07 2.931s5.21-1.07 7.07-2.931c1.86-1.859 2.93-4.439 2.93-7.069s-1.07-5.21-2.93-7.07-4.44-2.93-7.07-2.93z"/><path id="XMLID_1240_" d="m58.5 52.017c-2.63 0-5.21 1.069-7.07 2.93-1.86 1.86-2.93 4.44-2.93 7.07s1.07 5.21 2.93 7.069c1.86 1.86 4.44 2.931 7.07 2.931s5.21-1.07 7.07-2.931c1.86-1.859 2.93-4.439 2.93-7.069s-1.07-5.21-2.93-7.07-4.44-2.93-7.07-2.93z"/><path id="XMLID_1242_" d="m118.51 52.017c-2.63 0-5.21 1.069-7.07 2.93s-2.93 4.44-2.93 7.07 1.07 5.21 2.93 7.069c1.86 1.86 4.44 2.931 7.07 2.931s5.21-1.07 7.07-2.931c1.86-1.859 2.93-4.439 2.93-7.069s-1.07-5.21-2.93-7.07c-1.86-1.861-4.44-2.93-7.07-2.93z"/><path id="XMLID_1244_" d="m76.123 380.026h197.877c5.523 0 10-4.478 10-10s-4.477-10-10-10h-197.877c-5.523 0-10 4.478-10 10s4.477 10 10 10z"/><path id="XMLID_1245_" d="m76.123 316.03h29.293c5.523 0 10-4.478 10-10s-4.477-10-10-10h-29.293c-5.523 0-10 4.478-10 10s4.477 10 10 10z"/><path id="XMLID_1246_" d="m76.123 444.021h197.877c5.523 0 10-4.478 10-10s-4.477-10-10-10h-197.877c-5.523 0-10 4.478-10 10s4.477 10 10 10z"/><path id="XMLID_1247_" d="m232.094 296.03h-70.677c-5.523 0-10 4.478-10 10s4.477 10 10 10h70.677c5.523 0 10-4.478 10-10s-4.477-10-10-10z"/><path id="XMLID_1250_" d="m76.123 252.021h155.971c5.523 0 10-4.478 10-10s-4.477-10-10-10h-155.971c-5.523 0-10 4.478-10 10s4.477 10 10 10z"/><path id="XMLID_1252_" d="m76.123 188.026h29.293c5.523 0 10-4.478 10-10s-4.477-10-10-10h-29.293c-5.523 0-10 4.478-10 10s4.477 10 10 10z"/><path id="XMLID_1254_" d="m274 188.026c5.523 0 10-4.478 10-10s-4.477-10-10-10h-109.583c-5.523 0-10 4.478-10 10s4.477 10 10 10z"/><path id="XMLID_1255_" d="m10 316.027c2.63 0 5.21-1.06 7.07-2.93 1.86-1.86 2.93-4.44 2.93-7.07s-1.07-5.21-2.93-7.07c-1.86-1.859-4.44-2.93-7.07-2.93s-5.21 1.07-7.07 2.93-2.93 4.44-2.93 7.07 1.07 5.21 2.93 7.07c1.86 1.87 4.44 2.93 7.07 2.93z"/><path id="XMLID_1260_" d="m394 192.017c-40.804 0-74 33.196-74 74s33.196 74 74 74 74-33.196 74-74-33.196-74-74-74zm0 128c-29.776 0-54-24.225-54-54s24.224-54 54-54 54 24.225 54 54-24.224 54-54 54z"/><path id="XMLID_1270_" d="m509.397 255.724c8.124-25.098-3.03-52.024-26.521-64.026-6.303-3.22-11.336-8.254-14.557-14.558-12.001-23.491-38.929-34.644-64.027-26.52-.097.031-.196.052-.293.083v-140.686c0-5.522-4.477-10-10-10h-383.999c-5.523 0-10 4.478-10 10v251.013c0 5.522 4.477 10 10 10s10-4.478 10-10v-137.013h364v26.686c-.097-.031-.196-.051-.293-.083-25.1-8.128-52.024 3.027-64.027 26.52-3.22 6.304-8.254 11.338-14.557 14.558-23.491 12.002-34.645 38.929-26.52 64.026 2.18 6.733 2.18 13.853 0 20.586-8.124 25.098 3.03 52.024 26.521 64.026 6.303 3.22 11.336 8.254 14.557 14.558 4.767 9.331 11.893 16.71 20.319 21.713v81.382c0 3.63 1.967 6.974 5.138 8.738 3.173 1.767 7.051 1.672 10.135-.241l28.727-17.828v43.359h-364v-140.987c0-5.522-4.477-10-10-10s-10 4.478-10 10v150.987c0 5.522 4.477 10 10 10h384c5.523 0 10-4.478 10-10v-53.359l28.727 17.827c1.612 1 3.441 1.503 5.273 1.503 1.672 0 3.348-.419 4.861-1.262 3.171-1.765 5.138-5.108 5.138-8.738v-81.387c8.426-5.003 15.552-12.377 20.32-21.708 3.22-6.304 8.254-11.338 14.557-14.558 23.491-12.002 34.645-38.929 26.52-64.026-2.179-6.732-2.179-13.852.001-20.585zm-489.397-151.707v-84h364v84zm408 335.997-28.727-17.827c-3.229-2.004-7.316-2.004-10.546 0l-28.727 17.827v-56.442c2.341.316 4.713.479 7.102.479 5.504-.001 11.099-.855 16.604-2.638 6.735-2.18 13.854-2.178 20.587 0 7.896 2.556 15.971 3.201 23.707 2.157zm62.369-157.544c5.083 15.701-1.895 32.547-16.592 40.056-10.075 5.147-18.121 13.193-23.268 23.269-7.508 14.696-24.355 21.671-40.057 16.592-10.762-3.484-22.14-3.484-32.905 0-15.699 5.085-32.547-1.896-40.056-16.592-5.147-10.075-13.193-18.121-23.268-23.269-14.697-7.509-21.674-24.354-16.592-40.056 3.485-10.764 3.485-22.143 0-32.906-5.083-15.701 1.895-32.547 16.592-40.056 10.075-5.147 18.121-13.193 23.268-23.269 5.862-11.473 17.413-18.241 29.668-18.241 3.444 0 6.945.535 10.389 1.649 10.763 3.484 22.142 3.484 32.904 0 15.701-5.081 32.549 1.896 40.057 16.592 5.147 10.075 13.193 18.121 23.268 23.269 14.697 7.509 21.674 24.354 16.592 40.056-3.484 10.764-3.484 22.143 0 32.906z"/><path id="XMLID_1303_" d="m408.642 245.279-20.262 20.263-9.021-9.021c-3.905-3.904-10.237-3.904-14.143 0-3.905 3.905-3.905 10.237 0 14.143l16.093 16.093c1.875 1.875 4.419 2.929 7.071 2.929s5.196-1.054 7.071-2.929l27.333-27.334c3.905-3.905 3.905-10.237 0-14.143-3.906-3.906-10.237-3.906-14.142-.001z"/></g></g></g></svg>