<svg height="512" viewBox="0 0 64 64" width="512" xmlns="http://www.w3.org/2000/svg"><path d="m43 35a1 1 0 0 0 1-1v-13a1 1 0 0 0 -1-1h-31a1 1 0 0 0 -1 1v23a1 1 0 0 0 1 1h23a1 1 0 0 0 0-2h-22v-21h29v12a1 1 0 0 0 1 1z"/><path d="m53 25a1 1 0 0 0 1-1v-3a1 1 0 0 0 -1-1h-6a1 1 0 0 0 -1 1v6a1 1 0 0 0 1 1h4a1 1 0 0 0 0-2h-3v-4h4v2a1 1 0 0 0 1 1z"/><path d="m25.447 28.605a1 1 0 0 0 -1.447.895v5a1 1 0 0 0 1.447.9l5-2.5a1 1 0 0 0 0-1.79zm.553 4.277v-1.764l1.764.882z"/><path d="m32.682 36.209a1 1 0 0 0 1.355-.4 7.992 7.992 0 1 0 -3.23 3.231 1 1 0 0 0 -.953-1.759 6 6 0 1 1 2.425-2.425 1 1 0 0 0 .403 1.353z"/><path d="m61 49h-7v-17a1 1 0 0 0 -1-1h-6a1 1 0 0 0 -1 1v5h-7a1 1 0 0 0 -1 1v11h-30v-29a3 3 0 0 1 3-3h42a3 3 0 0 1 3 3v26a1 1 0 0 0 2 0v-26a5.006 5.006 0 0 0 -5-5h-42a5.006 5.006 0 0 0 -5 5v29h-3a1 1 0 0 0 -1 1v4a5.006 5.006 0 0 0 5 5h37a1 1 0 0 0 0-2h-37a3 3 0 0 1 -3-3v-3h33v2h-11a1 1 0 0 0 0 2h12a1 1 0 0 0 1-1v-3h21v3a3 3 0 0 1 -3 3h-9a1 1 0 0 0 0 2h9a5.006 5.006 0 0 0 5-5v-4a1 1 0 0 0 -1-1zm-13-16h4v4h-4zm-3 11a1 1 0 1 1 1 1 1 1 0 0 1 -1-1zm-1 5v-1a1 1 0 0 1 1-1h2a1 1 0 0 1 1 1v1zm6 0v-1a2.994 2.994 0 0 0 -1.4-2.529 2.967 2.967 0 0 0 .4-1.471 3 3 0 0 0 -6 0 2.967 2.967 0 0 0 .4 1.471 2.994 2.994 0 0 0 -1.4 2.529v1h-2v-10h12v10z"/><circle cx="51" cy="54" r="1"/><circle cx="55" cy="54" r="1"/><circle cx="9" cy="54" r="1"/><circle cx="13" cy="54" r="1"/></svg>